<mxfile host="app.diagrams.net" modified="2024-09-14T14:04:20.019Z" agent="Mozilla/5.0 (Windows NT 10.0; Win64; x64) AppleWebKit/537.36 (KHTML, like Gecko) Chrome/128.0.0.0 Safari/537.36" version="24.4.0" etag="1kyRnP9gBkTg6Dpd-E_Y" type="github">
  <diagram name="Page-1" id="YLKSIUWthzK2uop7qJLO">
    <mxGraphModel>
      <root>
        <mxCell id="0" />
        <mxCell id="1" parent="0" />
      </root>
    </mxGraphModel>
  </diagram>
</mxfile>
